<svg xmlns="http://www.w3.org/2000/svg" width="512" height="512" viewBox="0 0 40 40">
  <defs>
    <linearGradient id="bgGrad" x1="22.96" y1="2.63" x2="42.26" y2="22.34" gradientUnits="userSpaceOnUse">
      <stop offset="0" stop-color="#96d0fe"/>
      <stop offset="0.3" stop-color="#67bdfb"/>
      <stop offset="1" stop-color="#387ff7"/>
    </linearGradient>
  </defs>
  <rect width="40" height="40" rx="6" fill="url(#bgGrad)"/>
  <path fill="#ffffff" d="M11.17 25.78v5.7l.08.32.08.16.08.16.08.08.08.08.08.08.08.08.08.08.16.08.16.08h.08l-.08-.16-.08-.16-.08-.16-.08-.16v-.16l.08-.23.16-.24.16-.16.23-.23.16-.16.31-.23.24-.16.23-.16.55-.31.31-.16.63-.23.39-.16.78-.23.94-.24.47-.08.94-.15.94-.08h1.25l1.8.08 1.1.16.85.08 1.17.23.78.24.39.08h.47l.46-.08.94-.31.39-.31.31-.31.24-.31.31-.39.24-.47.23-.55.23-.39.24-.39.23-.39.39-.39.39-.23.39-.24.39-.08v-.08l-1.1.08-.78.31-.55.31-.39.39-.31.39-.39.55-.31.23-.39.08h-.24l-.23-.16-.08-.23v-.24-.23l.08-.23.31-.31.24-.24.31-.23.24-.08h.23l-.16-.16-.62-.39-.63-.23-.62-.24-1.41-.31-.78-.16-1.17-.23-.86-.08-2.89-.08-.78.08-1.41.16-1.33.23-1.33.31-1.25.39-.86.39-.86.39-.94.63-.16.31z"/>
  <path fill="#ffffff" d="M6.64 13.83l-.39.7-.39.86-.24.86-.08.7v1.25l.16.86.31.94.39.78.31.55.39.55.63.55.55.39.78.47.62.23.55.16h.31l.24.08.31-.08.16-.08.23-.16.55-.31 1.02-.39.86-.31 1.02-.31 1.25-.39 1.33-.31 1.33-.16 1.95-.08 1.88.08 1.72.23 1.72.39 1.64.55.78.23h.47l.55-.16 1.02-.39.78-.47.62-.55.63-.78.62-1.02.39-1.02.24-1.09v-.86l-.08-.94-.24-1.02-.47-1.17-.62-1.02-1.17-1.09-1.17-.63-1.02-.39h-1.41l-.86.16-.31.08-.24-.31-.47-.7-.62-.63-1.17-.86-1.02-.55-.94-.39-1.8-.31h-1.09l-1.64.39-1.17.47-1.1.7-.7.63-.62.55-.7.78.08.08 1.02.39 1.25.86 1.02 1.02.16.47-.08.39-.24.23-.31.16h-.24l-.47-.39-.55-.55-.62-.47-1.17-.7-1.02-.31-1.02-.16-1.02.08-1.41.39-.94.47-.86.78-.55.63-.39.55z"/>
</svg>